<svg width="40" height="40" viewBox="0 0 40 40" fill="none" xmlns="http://www.w3.org/2000/svg">
<path d="M0 0H40V40H0V0Z" fill="black"/>
<path d="M11.2969 11.297C6.61749 15.9765 6.95665 23.6702 12.0764 27.9238C8.42041 23.5435 8.62697 16.9404 12.7836 12.7837C16.9403 8.62698 23.5434 8.41957 27.9236 12.0765C23.6701 6.95664 15.9764 6.61747 11.2969 11.297Z" fill="white"/>
<path d="M28.7031 28.7033C33.3825 24.0238 33.0433 16.3301 27.9236 12.0765C31.5796 16.4567 31.373 23.0599 27.2163 27.2166C23.0597 31.3733 16.4566 31.5808 12.0764 27.9238C16.3309 33.0428 24.0245 33.3829 28.7031 28.7033Z" fill="white"/>
</svg>
